G04 #@! TF.GenerationSoftware,KiCad,Pcbnew,5.0.2+dfsg1-1~bpo9+1*
G04 #@! TF.CreationDate,2021-09-12T12:59:09+02:00*
G04 #@! TF.ProjectId,VGA222-PMOD,56474132-3232-42d5-904d-4f442e6b6963,rev?*
G04 #@! TF.SameCoordinates,Original*
G04 #@! TF.FileFunction,Copper,L2,Bot*
G04 #@! TF.FilePolarity,Positive*
%FSLAX46Y46*%
G04 Gerber Fmt 4.6, Leading zero omitted, Abs format (unit mm)*
G04 Created by KiCad (PCBNEW 5.0.2+dfsg1-1~bpo9+1) date Sun Sep 12 12:59:09 2021*
%MOMM*%
%LPD*%
G01*
G04 APERTURE LIST*
G04 #@! TA.AperFunction,ComponentPad*
%ADD10R,1.600000X1.600000*%
G04 #@! TD*
G04 #@! TA.AperFunction,ComponentPad*
%ADD11C,1.600000*%
G04 #@! TD*
G04 #@! TA.AperFunction,ComponentPad*
%ADD12O,1.600000X1.600000*%
G04 #@! TD*
G04 #@! TA.AperFunction,ComponentPad*
%ADD13C,1.500000*%
G04 #@! TD*
G04 #@! TA.AperFunction,ComponentPad*
%ADD14C,3.500000*%
G04 #@! TD*
G04 #@! TA.AperFunction,ComponentPad*
%ADD15R,1.700000X1.700000*%
G04 #@! TD*
G04 #@! TA.AperFunction,ComponentPad*
%ADD16O,1.700000X1.700000*%
G04 #@! TD*
G04 #@! TA.AperFunction,Conductor*
%ADD17C,0.500000*%
G04 #@! TD*
G04 #@! TA.AperFunction,Conductor*
%ADD18C,0.254000*%
G04 #@! TD*
G04 APERTURE END LIST*
D10*
G04 #@! TO.P,C3,1*
G04 #@! TO.N,Net-(C3-Pad1)*
X128000000Y-53500000D03*
D11*
G04 #@! TO.P,C3,2*
G04 #@! TO.N,GND*
X125500000Y-53500000D03*
G04 #@! TD*
G04 #@! TO.P,R25,1*
G04 #@! TO.N,VGA_B*
X120500000Y-61500000D03*
D12*
G04 #@! TO.P,R25,2*
G04 #@! TO.N,B2*
X117960000Y-61500000D03*
G04 #@! TD*
G04 #@! TO.P,R24,2*
G04 #@! TO.N,B3*
X111460000Y-60000000D03*
D11*
G04 #@! TO.P,R24,1*
G04 #@! TO.N,VGA_B*
X114000000Y-60000000D03*
G04 #@! TD*
G04 #@! TO.P,R19,1*
G04 #@! TO.N,VGA_G*
X120500000Y-57500000D03*
D12*
G04 #@! TO.P,R19,2*
G04 #@! TO.N,G2*
X117960000Y-57500000D03*
G04 #@! TD*
G04 #@! TO.P,R18,2*
G04 #@! TO.N,G3*
X111460000Y-56000000D03*
D11*
G04 #@! TO.P,R18,1*
G04 #@! TO.N,VGA_G*
X114000000Y-56000000D03*
G04 #@! TD*
G04 #@! TO.P,R13,1*
G04 #@! TO.N,VGA_R*
X120500000Y-53500000D03*
D12*
G04 #@! TO.P,R13,2*
G04 #@! TO.N,R2*
X117960000Y-53500000D03*
G04 #@! TD*
G04 #@! TO.P,R12,2*
G04 #@! TO.N,R3*
X111460000Y-52000000D03*
D11*
G04 #@! TO.P,R12,1*
G04 #@! TO.N,VGA_R*
X114000000Y-52000000D03*
G04 #@! TD*
G04 #@! TO.P,R9,1*
G04 #@! TO.N,Net-(C3-Pad1)*
X126500000Y-67000000D03*
D12*
G04 #@! TO.P,R9,2*
G04 #@! TO.N,GND*
X126500000Y-64460000D03*
G04 #@! TD*
G04 #@! TO.P,R11,2*
G04 #@! TO.N,VGA_VS*
X114540000Y-67000000D03*
D11*
G04 #@! TO.P,R11,1*
G04 #@! TO.N,HS*
X112000000Y-67000000D03*
G04 #@! TD*
G04 #@! TO.P,R10,1*
G04 #@! TO.N,VS*
X118500000Y-66000000D03*
D12*
G04 #@! TO.P,R10,2*
G04 #@! TO.N,VGA_HS*
X121040000Y-66000000D03*
G04 #@! TD*
D13*
G04 #@! TO.P,J1,15*
G04 #@! TO.N,Net-(J1-Pad15)*
X141140000Y-64410000D03*
G04 #@! TO.P,J1,14*
G04 #@! TO.N,VGA_VS*
X141140000Y-62120000D03*
G04 #@! TO.P,J1,13*
G04 #@! TO.N,VGA_HS*
X141140000Y-59826000D03*
G04 #@! TO.P,J1,12*
G04 #@! TO.N,Net-(J1-Pad12)*
X141140000Y-57540000D03*
G04 #@! TO.P,J1,11*
G04 #@! TO.N,Net-(J1-Pad11)*
X141140000Y-55250000D03*
G04 #@! TO.P,J1,10*
G04 #@! TO.N,GND*
X138600000Y-63270000D03*
G04 #@! TO.P,J1,9*
G04 #@! TO.N,Net-(J1-Pad9)*
X138600000Y-60980000D03*
G04 #@! TO.P,J1,8*
G04 #@! TO.N,GND*
X138600000Y-58690000D03*
G04 #@! TO.P,J1,7*
X138600000Y-56400000D03*
G04 #@! TO.P,J1,6*
X138600000Y-54110000D03*
G04 #@! TO.P,J1,5*
X136060000Y-64410000D03*
G04 #@! TO.P,J1,4*
G04 #@! TO.N,Net-(J1-Pad4)*
X136060000Y-62120000D03*
G04 #@! TO.P,J1,3*
G04 #@! TO.N,VGA_B*
X136060000Y-59830000D03*
G04 #@! TO.P,J1,2*
G04 #@! TO.N,VGA_G*
X136060000Y-57540000D03*
G04 #@! TO.P,J1,1*
G04 #@! TO.N,VGA_R*
X136060000Y-55250000D03*
D14*
G04 #@! TO.P,J1,0*
G04 #@! TO.N,Net-(C3-Pad1)*
X138600000Y-47080000D03*
X138600000Y-72080000D03*
G04 #@! TD*
D15*
G04 #@! TO.P,J2,1*
G04 #@! TO.N,+3V3*
X106604000Y-66129000D03*
D16*
G04 #@! TO.P,J2,2*
X104064000Y-66129000D03*
G04 #@! TO.P,J2,3*
G04 #@! TO.N,GND*
X106604000Y-63589000D03*
G04 #@! TO.P,J2,4*
X104064000Y-63589000D03*
G04 #@! TO.P,J2,5*
G04 #@! TO.N,VS*
X106604000Y-61049000D03*
G04 #@! TO.P,J2,6*
G04 #@! TO.N,HS*
X104064000Y-61049000D03*
G04 #@! TO.P,J2,7*
G04 #@! TO.N,B3*
X106604000Y-58509000D03*
G04 #@! TO.P,J2,8*
G04 #@! TO.N,B2*
X104064000Y-58509000D03*
G04 #@! TO.P,J2,9*
G04 #@! TO.N,G3*
X106604000Y-55969000D03*
G04 #@! TO.P,J2,10*
G04 #@! TO.N,G2*
X104064000Y-55969000D03*
G04 #@! TO.P,J2,11*
G04 #@! TO.N,R3*
X106604000Y-53429000D03*
G04 #@! TO.P,J2,12*
G04 #@! TO.N,R2*
X104064000Y-53429000D03*
G04 #@! TD*
D17*
G04 #@! TO.N,Net-(C3-Pad1)*
X138600000Y-72080000D02*
X131580000Y-72080000D01*
X131580000Y-72080000D02*
X126500000Y-67000000D01*
X138600000Y-47080000D02*
X133370000Y-47080000D01*
X133370000Y-47080000D02*
X128000000Y-52450000D01*
X128000000Y-52450000D02*
X128000000Y-53500000D01*
X138600000Y-72080000D02*
X145600000Y-65080000D01*
X145600000Y-65080000D02*
X145600000Y-54080000D01*
X145600000Y-54080000D02*
X138600000Y-47080000D01*
G04 #@! TD*
D18*
G04 #@! TO.N,GND*
G36*
X137249006Y-45058095D02*
X136578095Y-45729006D01*
X136385074Y-46195000D01*
X133457161Y-46195000D01*
X133370000Y-46177663D01*
X133282839Y-46195000D01*
X133282835Y-46195000D01*
X133024690Y-46246348D01*
X132805845Y-46392576D01*
X132805844Y-46392577D01*
X132731951Y-46441951D01*
X132682577Y-46515844D01*
X127435847Y-51762575D01*
X127361951Y-51811951D01*
X127201181Y-52052560D01*
X127200000Y-52052560D01*
X126952235Y-52101843D01*
X126742191Y-52242191D01*
X126601843Y-52452235D01*
X126555307Y-52686187D01*
X126507745Y-52671861D01*
X125679605Y-53500000D01*
X126507745Y-54328139D01*
X126555307Y-54313813D01*
X126601843Y-54547765D01*
X126742191Y-54757809D01*
X126952235Y-54898157D01*
X127200000Y-54947440D01*
X128800000Y-54947440D01*
X129047765Y-54898157D01*
X129257809Y-54757809D01*
X129398157Y-54547765D01*
X129447440Y-54300000D01*
X129447440Y-53138483D01*
X137808088Y-53138483D01*
X138600000Y-53930395D01*
X139391912Y-53138483D01*
X139323923Y-52897540D01*
X138804829Y-52712799D01*
X138254552Y-52740770D01*
X137876077Y-52897540D01*
X137808088Y-53138483D01*
X129447440Y-53138483D01*
X129447440Y-52700000D01*
X129398157Y-52452235D01*
X129338550Y-52363028D01*
X133736579Y-47965000D01*
X136385074Y-47965000D01*
X136578095Y-48430994D01*
X137249006Y-49101905D01*
X138125594Y-49465000D01*
X139074406Y-49465000D01*
X139540400Y-49271979D01*
X144715001Y-54446580D01*
X144715000Y-64713421D01*
X139540400Y-69888021D01*
X139074406Y-69695000D01*
X138125594Y-69695000D01*
X137249006Y-70058095D01*
X136578095Y-70729006D01*
X136385074Y-71195000D01*
X131946579Y-71195000D01*
X127935000Y-67183422D01*
X127935000Y-66714561D01*
X127716534Y-66187138D01*
X127312862Y-65783466D01*
X127163573Y-65721628D01*
X127237423Y-65691041D01*
X127579108Y-65381517D01*
X135268088Y-65381517D01*
X135336077Y-65622460D01*
X135855171Y-65807201D01*
X136405448Y-65779230D01*
X136783923Y-65622460D01*
X136851912Y-65381517D01*
X136060000Y-64589605D01*
X135268088Y-65381517D01*
X127579108Y-65381517D01*
X127652389Y-65315134D01*
X127891914Y-64809041D01*
X127770629Y-64587000D01*
X126627000Y-64587000D01*
X126627000Y-64607000D01*
X126373000Y-64607000D01*
X126373000Y-64587000D01*
X125229371Y-64587000D01*
X125108086Y-64809041D01*
X125347611Y-65315134D01*
X125762577Y-65691041D01*
X125836427Y-65721628D01*
X125687138Y-65783466D01*
X125283466Y-66187138D01*
X125065000Y-66714561D01*
X125065000Y-67285439D01*
X125283466Y-67812862D01*
X125687138Y-68216534D01*
X126064880Y-68373000D01*
X114993028Y-68373000D01*
X115099909Y-68351740D01*
X115574577Y-68034577D01*
X115891740Y-67559909D01*
X116003113Y-67000000D01*
X115891740Y-66440091D01*
X115574577Y-65965423D01*
X115199136Y-65714561D01*
X117065000Y-65714561D01*
X117065000Y-66285439D01*
X117283466Y-66812862D01*
X117687138Y-67216534D01*
X118214561Y-67435000D01*
X118785439Y-67435000D01*
X119312862Y-67216534D01*
X119716534Y-66812862D01*
X119770394Y-66682832D01*
X120005423Y-67034577D01*
X120480091Y-67351740D01*
X120898667Y-67435000D01*
X121181333Y-67435000D01*
X121599909Y-67351740D01*
X122074577Y-67034577D01*
X122391740Y-66559909D01*
X122503113Y-66000000D01*
X122391740Y-65440091D01*
X122074577Y-64965423D01*
X121599909Y-64648260D01*
X121181333Y-64565000D01*
X120898667Y-64565000D01*
X120480091Y-64648260D01*
X120005423Y-64965423D01*
X119770394Y-65317168D01*
X119716534Y-65187138D01*
X119312862Y-64783466D01*
X118785439Y-64565000D01*
X118214561Y-64565000D01*
X117687138Y-64783466D01*
X117283466Y-65187138D01*
X117065000Y-65714561D01*
X115199136Y-65714561D01*
X115099909Y-65648260D01*
X114681333Y-65565000D01*
X114398667Y-65565000D01*
X113980091Y-65648260D01*
X113505423Y-65965423D01*
X113270394Y-66317168D01*
X113216534Y-66187138D01*
X112812862Y-65783466D01*
X112285439Y-65565000D01*
X111714561Y-65565000D01*
X111187138Y-65783466D01*
X110783466Y-66187138D01*
X110565000Y-66714561D01*
X110565000Y-67285439D01*
X110783466Y-67812862D01*
X111187138Y-68216534D01*
X111564880Y-68373000D01*
X100710000Y-68373000D01*
X100710000Y-66129000D01*
X102549908Y-66129000D01*
X102665161Y-66708418D01*
X102993375Y-67199625D01*
X103484582Y-67527839D01*
X103917744Y-67614000D01*
X104210256Y-67614000D01*
X104643418Y-67527839D01*
X105134625Y-67199625D01*
X105146816Y-67181381D01*
X105155843Y-67226765D01*
X105296191Y-67436809D01*
X105506235Y-67577157D01*
X105754000Y-67626440D01*
X107454000Y-67626440D01*
X107701765Y-67577157D01*
X107911809Y-67436809D01*
X108052157Y-67226765D01*
X108101440Y-66979000D01*
X108101440Y-65279000D01*
X108052157Y-65031235D01*
X107911809Y-64821191D01*
X107701765Y-64680843D01*
X107598292Y-64660261D01*
X107875645Y-64355924D01*
X107977106Y-64110959D01*
X125108086Y-64110959D01*
X125229371Y-64333000D01*
X126373000Y-64333000D01*
X126373000Y-63190085D01*
X126627000Y-63190085D01*
X126627000Y-64333000D01*
X127770629Y-64333000D01*
X127840452Y-64205171D01*
X134662799Y-64205171D01*
X134690770Y-64755448D01*
X134847540Y-65133923D01*
X135088483Y-65201912D01*
X135880395Y-64410000D01*
X136239605Y-64410000D01*
X137031517Y-65201912D01*
X137272460Y-65133923D01*
X137457201Y-64614829D01*
X137438226Y-64241517D01*
X137808088Y-64241517D01*
X137876077Y-64482460D01*
X138395171Y-64667201D01*
X138945448Y-64639230D01*
X139323923Y-64482460D01*
X139391912Y-64241517D01*
X138600000Y-63449605D01*
X137808088Y-64241517D01*
X137438226Y-64241517D01*
X137429230Y-64064552D01*
X137401620Y-63997896D01*
X137628483Y-64061912D01*
X138420395Y-63270000D01*
X138779605Y-63270000D01*
X139571517Y-64061912D01*
X139812460Y-63993923D01*
X139997201Y-63474829D01*
X139969230Y-62924552D01*
X139812460Y-62546077D01*
X139571517Y-62478088D01*
X138779605Y-63270000D01*
X138420395Y-63270000D01*
X137628483Y-62478088D01*
X137387540Y-62546077D01*
X137202799Y-63065171D01*
X137230770Y-63615448D01*
X137258380Y-63682104D01*
X137031517Y-63618088D01*
X136239605Y-64410000D01*
X135880395Y-64410000D01*
X135088483Y-63618088D01*
X134847540Y-63686077D01*
X134662799Y-64205171D01*
X127840452Y-64205171D01*
X127891914Y-64110959D01*
X127652389Y-63604866D01*
X127237423Y-63228959D01*
X126849039Y-63068096D01*
X126627000Y-63190085D01*
X126373000Y-63190085D01*
X126150961Y-63068096D01*
X125762577Y-63228959D01*
X125347611Y-63604866D01*
X125108086Y-64110959D01*
X107977106Y-64110959D01*
X108045476Y-63945890D01*
X107924155Y-63716000D01*
X106731000Y-63716000D01*
X106731000Y-63736000D01*
X106477000Y-63736000D01*
X106477000Y-63716000D01*
X104191000Y-63716000D01*
X104191000Y-63736000D01*
X103937000Y-63736000D01*
X103937000Y-63716000D01*
X102743845Y-63716000D01*
X102622524Y-63945890D01*
X102792355Y-64355924D01*
X103182642Y-64784183D01*
X103312478Y-64845157D01*
X102993375Y-65058375D01*
X102665161Y-65549582D01*
X102549908Y-66129000D01*
X100710000Y-66129000D01*
X100710000Y-53429000D01*
X102549908Y-53429000D01*
X102665161Y-54008418D01*
X102993375Y-54499625D01*
X103291761Y-54699000D01*
X102993375Y-54898375D01*
X102665161Y-55389582D01*
X102549908Y-55969000D01*
X102665161Y-56548418D01*
X102993375Y-57039625D01*
X103291761Y-57239000D01*
X102993375Y-57438375D01*
X102665161Y-57929582D01*
X102549908Y-58509000D01*
X102665161Y-59088418D01*
X102993375Y-59579625D01*
X103291761Y-59779000D01*
X102993375Y-59978375D01*
X102665161Y-60469582D01*
X102549908Y-61049000D01*
X102665161Y-61628418D01*
X102993375Y-62119625D01*
X103312478Y-62332843D01*
X103182642Y-62393817D01*
X102792355Y-62822076D01*
X102622524Y-63232110D01*
X102743845Y-63462000D01*
X103937000Y-63462000D01*
X103937000Y-63442000D01*
X104191000Y-63442000D01*
X104191000Y-63462000D01*
X106477000Y-63462000D01*
X106477000Y-63442000D01*
X106731000Y-63442000D01*
X106731000Y-63462000D01*
X107924155Y-63462000D01*
X108045476Y-63232110D01*
X107875645Y-62822076D01*
X107485358Y-62393817D01*
X107355522Y-62332843D01*
X107674625Y-62119625D01*
X108002839Y-61628418D01*
X108028382Y-61500000D01*
X116496887Y-61500000D01*
X116608260Y-62059909D01*
X116925423Y-62534577D01*
X117400091Y-62851740D01*
X117818667Y-62935000D01*
X118101333Y-62935000D01*
X118519909Y-62851740D01*
X118994577Y-62534577D01*
X119229606Y-62182832D01*
X119283466Y-62312862D01*
X119687138Y-62716534D01*
X120214561Y-62935000D01*
X120785439Y-62935000D01*
X121312862Y-62716534D01*
X121716534Y-62312862D01*
X121935000Y-61785439D01*
X121935000Y-61214561D01*
X121716534Y-60687138D01*
X121312862Y-60283466D01*
X120785439Y-60065000D01*
X120214561Y-60065000D01*
X119687138Y-60283466D01*
X119283466Y-60687138D01*
X119229606Y-60817168D01*
X118994577Y-60465423D01*
X118519909Y-60148260D01*
X118101333Y-60065000D01*
X117818667Y-60065000D01*
X117400091Y-60148260D01*
X116925423Y-60465423D01*
X116608260Y-60940091D01*
X116496887Y-61500000D01*
X108028382Y-61500000D01*
X108118092Y-61049000D01*
X108002839Y-60469582D01*
X107689075Y-60000000D01*
X109996887Y-60000000D01*
X110108260Y-60559909D01*
X110425423Y-61034577D01*
X110900091Y-61351740D01*
X111318667Y-61435000D01*
X111601333Y-61435000D01*
X112019909Y-61351740D01*
X112494577Y-61034577D01*
X112729606Y-60682832D01*
X112783466Y-60812862D01*
X113187138Y-61216534D01*
X113714561Y-61435000D01*
X114285439Y-61435000D01*
X114812862Y-61216534D01*
X115216534Y-60812862D01*
X115435000Y-60285439D01*
X115435000Y-59714561D01*
X115216534Y-59187138D01*
X114812862Y-58783466D01*
X114285439Y-58565000D01*
X113714561Y-58565000D01*
X113187138Y-58783466D01*
X112783466Y-59187138D01*
X112729606Y-59317168D01*
X112494577Y-58965423D01*
X112019909Y-58648260D01*
X111601333Y-58565000D01*
X111318667Y-58565000D01*
X110900091Y-58648260D01*
X110425423Y-58965423D01*
X110108260Y-59440091D01*
X109996887Y-60000000D01*
X107689075Y-60000000D01*
X107674625Y-59978375D01*
X107376239Y-59779000D01*
X107674625Y-59579625D01*
X108002839Y-59088418D01*
X108118092Y-58509000D01*
X108002839Y-57929582D01*
X107715802Y-57500000D01*
X116496887Y-57500000D01*
X116608260Y-58059909D01*
X116925423Y-58534577D01*
X117400091Y-58851740D01*
X117818667Y-58935000D01*
X118101333Y-58935000D01*
X118519909Y-58851740D01*
X118994577Y-58534577D01*
X119229606Y-58182832D01*
X119283466Y-58312862D01*
X119687138Y-58716534D01*
X120214561Y-58935000D01*
X120785439Y-58935000D01*
X121312862Y-58716534D01*
X121716534Y-58312862D01*
X121935000Y-57785439D01*
X121935000Y-57214561D01*
X121716534Y-56687138D01*
X121312862Y-56283466D01*
X120785439Y-56065000D01*
X120214561Y-56065000D01*
X119687138Y-56283466D01*
X119283466Y-56687138D01*
X119229606Y-56817168D01*
X118994577Y-56465423D01*
X118519909Y-56148260D01*
X118101333Y-56065000D01*
X117818667Y-56065000D01*
X117400091Y-56148260D01*
X116925423Y-56465423D01*
X116608260Y-56940091D01*
X116496887Y-57500000D01*
X107715802Y-57500000D01*
X107674625Y-57438375D01*
X107376239Y-57239000D01*
X107674625Y-57039625D01*
X108002839Y-56548418D01*
X108111925Y-56000000D01*
X109996887Y-56000000D01*
X110108260Y-56559909D01*
X110425423Y-57034577D01*
X110900091Y-57351740D01*
X111318667Y-57435000D01*
X111601333Y-57435000D01*
X112019909Y-57351740D01*
X112494577Y-57034577D01*
X112729606Y-56682832D01*
X112783466Y-56812862D01*
X113187138Y-57216534D01*
X113714561Y-57435000D01*
X114285439Y-57435000D01*
X114812862Y-57216534D01*
X115216534Y-56812862D01*
X115435000Y-56285439D01*
X115435000Y-55714561D01*
X115216534Y-55187138D01*
X115003902Y-54974506D01*
X134675000Y-54974506D01*
X134675000Y-55525494D01*
X134885853Y-56034540D01*
X135246313Y-56395000D01*
X134885853Y-56755460D01*
X134675000Y-57264506D01*
X134675000Y-57815494D01*
X134885853Y-58324540D01*
X135246313Y-58685000D01*
X134885853Y-59045460D01*
X134675000Y-59554506D01*
X134675000Y-60105494D01*
X134885853Y-60614540D01*
X135246313Y-60975000D01*
X134885853Y-61335460D01*
X134675000Y-61844506D01*
X134675000Y-62395494D01*
X134885853Y-62904540D01*
X135275460Y-63294147D01*
X135305326Y-63306518D01*
X135268088Y-63438483D01*
X136060000Y-64230395D01*
X136851912Y-63438483D01*
X136814674Y-63306518D01*
X136844540Y-63294147D01*
X137234147Y-62904540D01*
X137445000Y-62395494D01*
X137445000Y-61844506D01*
X137234147Y-61335460D01*
X136873687Y-60975000D01*
X137144181Y-60704506D01*
X137215000Y-60704506D01*
X137215000Y-61255494D01*
X137425853Y-61764540D01*
X137815460Y-62154147D01*
X137845326Y-62166518D01*
X137808088Y-62298483D01*
X138600000Y-63090395D01*
X139391912Y-62298483D01*
X139354674Y-62166518D01*
X139384540Y-62154147D01*
X139774147Y-61764540D01*
X139985000Y-61255494D01*
X139985000Y-60704506D01*
X139774147Y-60195460D01*
X139384540Y-59805853D01*
X139354674Y-59793482D01*
X139391912Y-59661517D01*
X138600000Y-58869605D01*
X137808088Y-59661517D01*
X137845326Y-59793482D01*
X137815460Y-59805853D01*
X137425853Y-60195460D01*
X137215000Y-60704506D01*
X137144181Y-60704506D01*
X137234147Y-60614540D01*
X137445000Y-60105494D01*
X137445000Y-59554506D01*
X137234147Y-59045460D01*
X136873687Y-58685000D01*
X137073516Y-58485171D01*
X137202799Y-58485171D01*
X137230770Y-59035448D01*
X137387540Y-59413923D01*
X137628483Y-59481912D01*
X138420395Y-58690000D01*
X138779605Y-58690000D01*
X139571517Y-59481912D01*
X139811457Y-59414206D01*
X139755000Y-59550506D01*
X139755000Y-60101494D01*
X139965853Y-60610540D01*
X140328313Y-60973000D01*
X139965853Y-61335460D01*
X139755000Y-61844506D01*
X139755000Y-62395494D01*
X139965853Y-62904540D01*
X140326313Y-63265000D01*
X139965853Y-63625460D01*
X139755000Y-64134506D01*
X139755000Y-64685494D01*
X139965853Y-65194540D01*
X140355460Y-65584147D01*
X140864506Y-65795000D01*
X141415494Y-65795000D01*
X141924540Y-65584147D01*
X142314147Y-65194540D01*
X142525000Y-64685494D01*
X142525000Y-64134506D01*
X142314147Y-63625460D01*
X141953687Y-63265000D01*
X142314147Y-62904540D01*
X142525000Y-62395494D01*
X142525000Y-61844506D01*
X142314147Y-61335460D01*
X141951687Y-60973000D01*
X142314147Y-60610540D01*
X142525000Y-60101494D01*
X142525000Y-59550506D01*
X142314147Y-59041460D01*
X141955687Y-58683000D01*
X142314147Y-58324540D01*
X142525000Y-57815494D01*
X142525000Y-57264506D01*
X142314147Y-56755460D01*
X141953687Y-56395000D01*
X142314147Y-56034540D01*
X142525000Y-55525494D01*
X142525000Y-54974506D01*
X142314147Y-54465460D01*
X141924540Y-54075853D01*
X141415494Y-53865000D01*
X140864506Y-53865000D01*
X140355460Y-54075853D01*
X139965853Y-54465460D01*
X139755000Y-54974506D01*
X139755000Y-55525494D01*
X139965853Y-56034540D01*
X140326313Y-56395000D01*
X139965853Y-56755460D01*
X139755000Y-57264506D01*
X139755000Y-57815494D01*
X139965853Y-58324540D01*
X140324313Y-58683000D01*
X139965853Y-59041460D01*
X139817865Y-59398737D01*
X139997201Y-58894829D01*
X139969230Y-58344552D01*
X139812460Y-57966077D01*
X139571517Y-57898088D01*
X138779605Y-58690000D01*
X138420395Y-58690000D01*
X137628483Y-57898088D01*
X137387540Y-57966077D01*
X137202799Y-58485171D01*
X137073516Y-58485171D01*
X137234147Y-58324540D01*
X137445000Y-57815494D01*
X137445000Y-57371517D01*
X137808088Y-57371517D01*
X137857041Y-57545000D01*
X137808088Y-57718483D01*
X138600000Y-58510395D01*
X139391912Y-57718483D01*
X139342959Y-57545000D01*
X139391912Y-57371517D01*
X138600000Y-56579605D01*
X137808088Y-57371517D01*
X137445000Y-57371517D01*
X137445000Y-57264506D01*
X137234147Y-56755460D01*
X136873687Y-56395000D01*
X137073516Y-56195171D01*
X137202799Y-56195171D01*
X137230770Y-56745448D01*
X137387540Y-57123923D01*
X137628483Y-57191912D01*
X138420395Y-56400000D01*
X138779605Y-56400000D01*
X139571517Y-57191912D01*
X139812460Y-57123923D01*
X139997201Y-56604829D01*
X139969230Y-56054552D01*
X139812460Y-55676077D01*
X139571517Y-55608088D01*
X138779605Y-56400000D01*
X138420395Y-56400000D01*
X137628483Y-55608088D01*
X137387540Y-55676077D01*
X137202799Y-56195171D01*
X137073516Y-56195171D01*
X137234147Y-56034540D01*
X137445000Y-55525494D01*
X137445000Y-55081517D01*
X137808088Y-55081517D01*
X137857041Y-55255000D01*
X137808088Y-55428483D01*
X138600000Y-56220395D01*
X139391912Y-55428483D01*
X139342959Y-55255000D01*
X139391912Y-55081517D01*
X138600000Y-54289605D01*
X137808088Y-55081517D01*
X137445000Y-55081517D01*
X137445000Y-54974506D01*
X137234147Y-54465460D01*
X136844540Y-54075853D01*
X136432476Y-53905171D01*
X137202799Y-53905171D01*
X137230770Y-54455448D01*
X137387540Y-54833923D01*
X137628483Y-54901912D01*
X138420395Y-54110000D01*
X138779605Y-54110000D01*
X139571517Y-54901912D01*
X139812460Y-54833923D01*
X139997201Y-54314829D01*
X139969230Y-53764552D01*
X139812460Y-53386077D01*
X139571517Y-53318088D01*
X138779605Y-54110000D01*
X138420395Y-54110000D01*
X137628483Y-53318088D01*
X137387540Y-53386077D01*
X137202799Y-53905171D01*
X136432476Y-53905171D01*
X136335494Y-53865000D01*
X135784506Y-53865000D01*
X135275460Y-54075853D01*
X134885853Y-54465460D01*
X134675000Y-54974506D01*
X115003902Y-54974506D01*
X114812862Y-54783466D01*
X114285439Y-54565000D01*
X113714561Y-54565000D01*
X113187138Y-54783466D01*
X112783466Y-55187138D01*
X112729606Y-55317168D01*
X112494577Y-54965423D01*
X112019909Y-54648260D01*
X111601333Y-54565000D01*
X111318667Y-54565000D01*
X110900091Y-54648260D01*
X110425423Y-54965423D01*
X110108260Y-55440091D01*
X109996887Y-56000000D01*
X108111925Y-56000000D01*
X108118092Y-55969000D01*
X108002839Y-55389582D01*
X107674625Y-54898375D01*
X107376239Y-54699000D01*
X107674625Y-54499625D01*
X108002839Y-54008418D01*
X108103969Y-53500000D01*
X116496887Y-53500000D01*
X116608260Y-54059909D01*
X116925423Y-54534577D01*
X117400091Y-54851740D01*
X117818667Y-54935000D01*
X118101333Y-54935000D01*
X118519909Y-54851740D01*
X118994577Y-54534577D01*
X119229606Y-54182832D01*
X119283466Y-54312862D01*
X119687138Y-54716534D01*
X120214561Y-54935000D01*
X120785439Y-54935000D01*
X121312862Y-54716534D01*
X121521651Y-54507745D01*
X124671861Y-54507745D01*
X124745995Y-54753864D01*
X125283223Y-54946965D01*
X125853454Y-54919778D01*
X126254005Y-54753864D01*
X126328139Y-54507745D01*
X125500000Y-53679605D01*
X124671861Y-54507745D01*
X121521651Y-54507745D01*
X121716534Y-54312862D01*
X121935000Y-53785439D01*
X121935000Y-53283223D01*
X124053035Y-53283223D01*
X124080222Y-53853454D01*
X124246136Y-54254005D01*
X124492255Y-54328139D01*
X125320395Y-53500000D01*
X124492255Y-52671861D01*
X124246136Y-52745995D01*
X124053035Y-53283223D01*
X121935000Y-53283223D01*
X121935000Y-53214561D01*
X121716534Y-52687138D01*
X121521651Y-52492255D01*
X124671861Y-52492255D01*
X125500000Y-53320395D01*
X126328139Y-52492255D01*
X126254005Y-52246136D01*
X125716777Y-52053035D01*
X125146546Y-52080222D01*
X124745995Y-52246136D01*
X124671861Y-52492255D01*
X121521651Y-52492255D01*
X121312862Y-52283466D01*
X120785439Y-52065000D01*
X120214561Y-52065000D01*
X119687138Y-52283466D01*
X119283466Y-52687138D01*
X119229606Y-52817168D01*
X118994577Y-52465423D01*
X118519909Y-52148260D01*
X118101333Y-52065000D01*
X117818667Y-52065000D01*
X117400091Y-52148260D01*
X116925423Y-52465423D01*
X116608260Y-52940091D01*
X116496887Y-53500000D01*
X108103969Y-53500000D01*
X108118092Y-53429000D01*
X108002839Y-52849582D01*
X107674625Y-52358375D01*
X107183418Y-52030161D01*
X106750256Y-51944000D01*
X106457744Y-51944000D01*
X106024582Y-52030161D01*
X105533375Y-52358375D01*
X105334000Y-52656761D01*
X105134625Y-52358375D01*
X104643418Y-52030161D01*
X104210256Y-51944000D01*
X103917744Y-51944000D01*
X103484582Y-52030161D01*
X102993375Y-52358375D01*
X102665161Y-52849582D01*
X102549908Y-53429000D01*
X100710000Y-53429000D01*
X100710000Y-50710000D01*
X110807691Y-50710000D01*
X110425423Y-50965423D01*
X110108260Y-51440091D01*
X109996887Y-52000000D01*
X110108260Y-52559909D01*
X110425423Y-53034577D01*
X110900091Y-53351740D01*
X111318667Y-53435000D01*
X111601333Y-53435000D01*
X112019909Y-53351740D01*
X112494577Y-53034577D01*
X112729606Y-52682832D01*
X112783466Y-52812862D01*
X113187138Y-53216534D01*
X113714561Y-53435000D01*
X114285439Y-53435000D01*
X114812862Y-53216534D01*
X115216534Y-52812862D01*
X115435000Y-52285439D01*
X115435000Y-51714561D01*
X115216534Y-51187138D01*
X114812862Y-50783466D01*
X114635500Y-50710000D01*
X127930075Y-50710000D01*
X128000000Y-50723909D01*
X128277028Y-50668805D01*
X128339594Y-50627000D01*
X128500000Y-50627000D01*
X128548601Y-50617333D01*
X128589803Y-50589803D01*
X128617333Y-50548601D01*
X128627000Y-50500000D01*
X128627000Y-50339594D01*
X128668805Y-50277028D01*
X128710000Y-50069926D01*
X128723909Y-50000000D01*
X128710000Y-49930074D01*
X128710000Y-44710000D01*
X138089381Y-44710000D01*
X137249006Y-45058095D01*
X137249006Y-45058095D01*
G37*
X137249006Y-45058095D02*
X136578095Y-45729006D01*
X136385074Y-46195000D01*
X133457161Y-46195000D01*
X133370000Y-46177663D01*
X133282839Y-46195000D01*
X133282835Y-46195000D01*
X133024690Y-46246348D01*
X132805845Y-46392576D01*
X132805844Y-46392577D01*
X132731951Y-46441951D01*
X132682577Y-46515844D01*
X127435847Y-51762575D01*
X127361951Y-51811951D01*
X127201181Y-52052560D01*
X127200000Y-52052560D01*
X126952235Y-52101843D01*
X126742191Y-52242191D01*
X126601843Y-52452235D01*
X126555307Y-52686187D01*
X126507745Y-52671861D01*
X125679605Y-53500000D01*
X126507745Y-54328139D01*
X126555307Y-54313813D01*
X126601843Y-54547765D01*
X126742191Y-54757809D01*
X126952235Y-54898157D01*
X127200000Y-54947440D01*
X128800000Y-54947440D01*
X129047765Y-54898157D01*
X129257809Y-54757809D01*
X129398157Y-54547765D01*
X129447440Y-54300000D01*
X129447440Y-53138483D01*
X137808088Y-53138483D01*
X138600000Y-53930395D01*
X139391912Y-53138483D01*
X139323923Y-52897540D01*
X138804829Y-52712799D01*
X138254552Y-52740770D01*
X137876077Y-52897540D01*
X137808088Y-53138483D01*
X129447440Y-53138483D01*
X129447440Y-52700000D01*
X129398157Y-52452235D01*
X129338550Y-52363028D01*
X133736579Y-47965000D01*
X136385074Y-47965000D01*
X136578095Y-48430994D01*
X137249006Y-49101905D01*
X138125594Y-49465000D01*
X139074406Y-49465000D01*
X139540400Y-49271979D01*
X144715001Y-54446580D01*
X144715000Y-64713421D01*
X139540400Y-69888021D01*
X139074406Y-69695000D01*
X138125594Y-69695000D01*
X137249006Y-70058095D01*
X136578095Y-70729006D01*
X136385074Y-71195000D01*
X131946579Y-71195000D01*
X127935000Y-67183422D01*
X127935000Y-66714561D01*
X127716534Y-66187138D01*
X127312862Y-65783466D01*
X127163573Y-65721628D01*
X127237423Y-65691041D01*
X127579108Y-65381517D01*
X135268088Y-65381517D01*
X135336077Y-65622460D01*
X135855171Y-65807201D01*
X136405448Y-65779230D01*
X136783923Y-65622460D01*
X136851912Y-65381517D01*
X136060000Y-64589605D01*
X135268088Y-65381517D01*
X127579108Y-65381517D01*
X127652389Y-65315134D01*
X127891914Y-64809041D01*
X127770629Y-64587000D01*
X126627000Y-64587000D01*
X126627000Y-64607000D01*
X126373000Y-64607000D01*
X126373000Y-64587000D01*
X125229371Y-64587000D01*
X125108086Y-64809041D01*
X125347611Y-65315134D01*
X125762577Y-65691041D01*
X125836427Y-65721628D01*
X125687138Y-65783466D01*
X125283466Y-66187138D01*
X125065000Y-66714561D01*
X125065000Y-67285439D01*
X125283466Y-67812862D01*
X125687138Y-68216534D01*
X126064880Y-68373000D01*
X114993028Y-68373000D01*
X115099909Y-68351740D01*
X115574577Y-68034577D01*
X115891740Y-67559909D01*
X116003113Y-67000000D01*
X115891740Y-66440091D01*
X115574577Y-65965423D01*
X115199136Y-65714561D01*
X117065000Y-65714561D01*
X117065000Y-66285439D01*
X117283466Y-66812862D01*
X117687138Y-67216534D01*
X118214561Y-67435000D01*
X118785439Y-67435000D01*
X119312862Y-67216534D01*
X119716534Y-66812862D01*
X119770394Y-66682832D01*
X120005423Y-67034577D01*
X120480091Y-67351740D01*
X120898667Y-67435000D01*
X121181333Y-67435000D01*
X121599909Y-67351740D01*
X122074577Y-67034577D01*
X122391740Y-66559909D01*
X122503113Y-66000000D01*
X122391740Y-65440091D01*
X122074577Y-64965423D01*
X121599909Y-64648260D01*
X121181333Y-64565000D01*
X120898667Y-64565000D01*
X120480091Y-64648260D01*
X120005423Y-64965423D01*
X119770394Y-65317168D01*
X119716534Y-65187138D01*
X119312862Y-64783466D01*
X118785439Y-64565000D01*
X118214561Y-64565000D01*
X117687138Y-64783466D01*
X117283466Y-65187138D01*
X117065000Y-65714561D01*
X115199136Y-65714561D01*
X115099909Y-65648260D01*
X114681333Y-65565000D01*
X114398667Y-65565000D01*
X113980091Y-65648260D01*
X113505423Y-65965423D01*
X113270394Y-66317168D01*
X113216534Y-66187138D01*
X112812862Y-65783466D01*
X112285439Y-65565000D01*
X111714561Y-65565000D01*
X111187138Y-65783466D01*
X110783466Y-66187138D01*
X110565000Y-66714561D01*
X110565000Y-67285439D01*
X110783466Y-67812862D01*
X111187138Y-68216534D01*
X111564880Y-68373000D01*
X100710000Y-68373000D01*
X100710000Y-66129000D01*
X102549908Y-66129000D01*
X102665161Y-66708418D01*
X102993375Y-67199625D01*
X103484582Y-67527839D01*
X103917744Y-67614000D01*
X104210256Y-67614000D01*
X104643418Y-67527839D01*
X105134625Y-67199625D01*
X105146816Y-67181381D01*
X105155843Y-67226765D01*
X105296191Y-67436809D01*
X105506235Y-67577157D01*
X105754000Y-67626440D01*
X107454000Y-67626440D01*
X107701765Y-67577157D01*
X107911809Y-67436809D01*
X108052157Y-67226765D01*
X108101440Y-66979000D01*
X108101440Y-65279000D01*
X108052157Y-65031235D01*
X107911809Y-64821191D01*
X107701765Y-64680843D01*
X107598292Y-64660261D01*
X107875645Y-64355924D01*
X107977106Y-64110959D01*
X125108086Y-64110959D01*
X125229371Y-64333000D01*
X126373000Y-64333000D01*
X126373000Y-63190085D01*
X126627000Y-63190085D01*
X126627000Y-64333000D01*
X127770629Y-64333000D01*
X127840452Y-64205171D01*
X134662799Y-64205171D01*
X134690770Y-64755448D01*
X134847540Y-65133923D01*
X135088483Y-65201912D01*
X135880395Y-64410000D01*
X136239605Y-64410000D01*
X137031517Y-65201912D01*
X137272460Y-65133923D01*
X137457201Y-64614829D01*
X137438226Y-64241517D01*
X137808088Y-64241517D01*
X137876077Y-64482460D01*
X138395171Y-64667201D01*
X138945448Y-64639230D01*
X139323923Y-64482460D01*
X139391912Y-64241517D01*
X138600000Y-63449605D01*
X137808088Y-64241517D01*
X137438226Y-64241517D01*
X137429230Y-64064552D01*
X137401620Y-63997896D01*
X137628483Y-64061912D01*
X138420395Y-63270000D01*
X138779605Y-63270000D01*
X139571517Y-64061912D01*
X139812460Y-63993923D01*
X139997201Y-63474829D01*
X139969230Y-62924552D01*
X139812460Y-62546077D01*
X139571517Y-62478088D01*
X138779605Y-63270000D01*
X138420395Y-63270000D01*
X137628483Y-62478088D01*
X137387540Y-62546077D01*
X137202799Y-63065171D01*
X137230770Y-63615448D01*
X137258380Y-63682104D01*
X137031517Y-63618088D01*
X136239605Y-64410000D01*
X135880395Y-64410000D01*
X135088483Y-63618088D01*
X134847540Y-63686077D01*
X134662799Y-64205171D01*
X127840452Y-64205171D01*
X127891914Y-64110959D01*
X127652389Y-63604866D01*
X127237423Y-63228959D01*
X126849039Y-63068096D01*
X126627000Y-63190085D01*
X126373000Y-63190085D01*
X126150961Y-63068096D01*
X125762577Y-63228959D01*
X125347611Y-63604866D01*
X125108086Y-64110959D01*
X107977106Y-64110959D01*
X108045476Y-63945890D01*
X107924155Y-63716000D01*
X106731000Y-63716000D01*
X106731000Y-63736000D01*
X106477000Y-63736000D01*
X106477000Y-63716000D01*
X104191000Y-63716000D01*
X104191000Y-63736000D01*
X103937000Y-63736000D01*
X103937000Y-63716000D01*
X102743845Y-63716000D01*
X102622524Y-63945890D01*
X102792355Y-64355924D01*
X103182642Y-64784183D01*
X103312478Y-64845157D01*
X102993375Y-65058375D01*
X102665161Y-65549582D01*
X102549908Y-66129000D01*
X100710000Y-66129000D01*
X100710000Y-53429000D01*
X102549908Y-53429000D01*
X102665161Y-54008418D01*
X102993375Y-54499625D01*
X103291761Y-54699000D01*
X102993375Y-54898375D01*
X102665161Y-55389582D01*
X102549908Y-55969000D01*
X102665161Y-56548418D01*
X102993375Y-57039625D01*
X103291761Y-57239000D01*
X102993375Y-57438375D01*
X102665161Y-57929582D01*
X102549908Y-58509000D01*
X102665161Y-59088418D01*
X102993375Y-59579625D01*
X103291761Y-59779000D01*
X102993375Y-59978375D01*
X102665161Y-60469582D01*
X102549908Y-61049000D01*
X102665161Y-61628418D01*
X102993375Y-62119625D01*
X103312478Y-62332843D01*
X103182642Y-62393817D01*
X102792355Y-62822076D01*
X102622524Y-63232110D01*
X102743845Y-63462000D01*
X103937000Y-63462000D01*
X103937000Y-63442000D01*
X104191000Y-63442000D01*
X104191000Y-63462000D01*
X106477000Y-63462000D01*
X106477000Y-63442000D01*
X106731000Y-63442000D01*
X106731000Y-63462000D01*
X107924155Y-63462000D01*
X108045476Y-63232110D01*
X107875645Y-62822076D01*
X107485358Y-62393817D01*
X107355522Y-62332843D01*
X107674625Y-62119625D01*
X108002839Y-61628418D01*
X108028382Y-61500000D01*
X116496887Y-61500000D01*
X116608260Y-62059909D01*
X116925423Y-62534577D01*
X117400091Y-62851740D01*
X117818667Y-62935000D01*
X118101333Y-62935000D01*
X118519909Y-62851740D01*
X118994577Y-62534577D01*
X119229606Y-62182832D01*
X119283466Y-62312862D01*
X119687138Y-62716534D01*
X120214561Y-62935000D01*
X120785439Y-62935000D01*
X121312862Y-62716534D01*
X121716534Y-62312862D01*
X121935000Y-61785439D01*
X121935000Y-61214561D01*
X121716534Y-60687138D01*
X121312862Y-60283466D01*
X120785439Y-60065000D01*
X120214561Y-60065000D01*
X119687138Y-60283466D01*
X119283466Y-60687138D01*
X119229606Y-60817168D01*
X118994577Y-60465423D01*
X118519909Y-60148260D01*
X118101333Y-60065000D01*
X117818667Y-60065000D01*
X117400091Y-60148260D01*
X116925423Y-60465423D01*
X116608260Y-60940091D01*
X116496887Y-61500000D01*
X108028382Y-61500000D01*
X108118092Y-61049000D01*
X108002839Y-60469582D01*
X107689075Y-60000000D01*
X109996887Y-60000000D01*
X110108260Y-60559909D01*
X110425423Y-61034577D01*
X110900091Y-61351740D01*
X111318667Y-61435000D01*
X111601333Y-61435000D01*
X112019909Y-61351740D01*
X112494577Y-61034577D01*
X112729606Y-60682832D01*
X112783466Y-60812862D01*
X113187138Y-61216534D01*
X113714561Y-61435000D01*
X114285439Y-61435000D01*
X114812862Y-61216534D01*
X115216534Y-60812862D01*
X115435000Y-60285439D01*
X115435000Y-59714561D01*
X115216534Y-59187138D01*
X114812862Y-58783466D01*
X114285439Y-58565000D01*
X113714561Y-58565000D01*
X113187138Y-58783466D01*
X112783466Y-59187138D01*
X112729606Y-59317168D01*
X112494577Y-58965423D01*
X112019909Y-58648260D01*
X111601333Y-58565000D01*
X111318667Y-58565000D01*
X110900091Y-58648260D01*
X110425423Y-58965423D01*
X110108260Y-59440091D01*
X109996887Y-60000000D01*
X107689075Y-60000000D01*
X107674625Y-59978375D01*
X107376239Y-59779000D01*
X107674625Y-59579625D01*
X108002839Y-59088418D01*
X108118092Y-58509000D01*
X108002839Y-57929582D01*
X107715802Y-57500000D01*
X116496887Y-57500000D01*
X116608260Y-58059909D01*
X116925423Y-58534577D01*
X117400091Y-58851740D01*
X117818667Y-58935000D01*
X118101333Y-58935000D01*
X118519909Y-58851740D01*
X118994577Y-58534577D01*
X119229606Y-58182832D01*
X119283466Y-58312862D01*
X119687138Y-58716534D01*
X120214561Y-58935000D01*
X120785439Y-58935000D01*
X121312862Y-58716534D01*
X121716534Y-58312862D01*
X121935000Y-57785439D01*
X121935000Y-57214561D01*
X121716534Y-56687138D01*
X121312862Y-56283466D01*
X120785439Y-56065000D01*
X120214561Y-56065000D01*
X119687138Y-56283466D01*
X119283466Y-56687138D01*
X119229606Y-56817168D01*
X118994577Y-56465423D01*
X118519909Y-56148260D01*
X118101333Y-56065000D01*
X117818667Y-56065000D01*
X117400091Y-56148260D01*
X116925423Y-56465423D01*
X116608260Y-56940091D01*
X116496887Y-57500000D01*
X107715802Y-57500000D01*
X107674625Y-57438375D01*
X107376239Y-57239000D01*
X107674625Y-57039625D01*
X108002839Y-56548418D01*
X108111925Y-56000000D01*
X109996887Y-56000000D01*
X110108260Y-56559909D01*
X110425423Y-57034577D01*
X110900091Y-57351740D01*
X111318667Y-57435000D01*
X111601333Y-57435000D01*
X112019909Y-57351740D01*
X112494577Y-57034577D01*
X112729606Y-56682832D01*
X112783466Y-56812862D01*
X113187138Y-57216534D01*
X113714561Y-57435000D01*
X114285439Y-57435000D01*
X114812862Y-57216534D01*
X115216534Y-56812862D01*
X115435000Y-56285439D01*
X115435000Y-55714561D01*
X115216534Y-55187138D01*
X115003902Y-54974506D01*
X134675000Y-54974506D01*
X134675000Y-55525494D01*
X134885853Y-56034540D01*
X135246313Y-56395000D01*
X134885853Y-56755460D01*
X134675000Y-57264506D01*
X134675000Y-57815494D01*
X134885853Y-58324540D01*
X135246313Y-58685000D01*
X134885853Y-59045460D01*
X134675000Y-59554506D01*
X134675000Y-60105494D01*
X134885853Y-60614540D01*
X135246313Y-60975000D01*
X134885853Y-61335460D01*
X134675000Y-61844506D01*
X134675000Y-62395494D01*
X134885853Y-62904540D01*
X135275460Y-63294147D01*
X135305326Y-63306518D01*
X135268088Y-63438483D01*
X136060000Y-64230395D01*
X136851912Y-63438483D01*
X136814674Y-63306518D01*
X136844540Y-63294147D01*
X137234147Y-62904540D01*
X137445000Y-62395494D01*
X137445000Y-61844506D01*
X137234147Y-61335460D01*
X136873687Y-60975000D01*
X137144181Y-60704506D01*
X137215000Y-60704506D01*
X137215000Y-61255494D01*
X137425853Y-61764540D01*
X137815460Y-62154147D01*
X137845326Y-62166518D01*
X137808088Y-62298483D01*
X138600000Y-63090395D01*
X139391912Y-62298483D01*
X139354674Y-62166518D01*
X139384540Y-62154147D01*
X139774147Y-61764540D01*
X139985000Y-61255494D01*
X139985000Y-60704506D01*
X139774147Y-60195460D01*
X139384540Y-59805853D01*
X139354674Y-59793482D01*
X139391912Y-59661517D01*
X138600000Y-58869605D01*
X137808088Y-59661517D01*
X137845326Y-59793482D01*
X137815460Y-59805853D01*
X137425853Y-60195460D01*
X137215000Y-60704506D01*
X137144181Y-60704506D01*
X137234147Y-60614540D01*
X137445000Y-60105494D01*
X137445000Y-59554506D01*
X137234147Y-59045460D01*
X136873687Y-58685000D01*
X137073516Y-58485171D01*
X137202799Y-58485171D01*
X137230770Y-59035448D01*
X137387540Y-59413923D01*
X137628483Y-59481912D01*
X138420395Y-58690000D01*
X138779605Y-58690000D01*
X139571517Y-59481912D01*
X139811457Y-59414206D01*
X139755000Y-59550506D01*
X139755000Y-60101494D01*
X139965853Y-60610540D01*
X140328313Y-60973000D01*
X139965853Y-61335460D01*
X139755000Y-61844506D01*
X139755000Y-62395494D01*
X139965853Y-62904540D01*
X140326313Y-63265000D01*
X139965853Y-63625460D01*
X139755000Y-64134506D01*
X139755000Y-64685494D01*
X139965853Y-65194540D01*
X140355460Y-65584147D01*
X140864506Y-65795000D01*
X141415494Y-65795000D01*
X141924540Y-65584147D01*
X142314147Y-65194540D01*
X142525000Y-64685494D01*
X142525000Y-64134506D01*
X142314147Y-63625460D01*
X141953687Y-63265000D01*
X142314147Y-62904540D01*
X142525000Y-62395494D01*
X142525000Y-61844506D01*
X142314147Y-61335460D01*
X141951687Y-60973000D01*
X142314147Y-60610540D01*
X142525000Y-60101494D01*
X142525000Y-59550506D01*
X142314147Y-59041460D01*
X141955687Y-58683000D01*
X142314147Y-58324540D01*
X142525000Y-57815494D01*
X142525000Y-57264506D01*
X142314147Y-56755460D01*
X141953687Y-56395000D01*
X142314147Y-56034540D01*
X142525000Y-55525494D01*
X142525000Y-54974506D01*
X142314147Y-54465460D01*
X141924540Y-54075853D01*
X141415494Y-53865000D01*
X140864506Y-53865000D01*
X140355460Y-54075853D01*
X139965853Y-54465460D01*
X139755000Y-54974506D01*
X139755000Y-55525494D01*
X139965853Y-56034540D01*
X140326313Y-56395000D01*
X139965853Y-56755460D01*
X139755000Y-57264506D01*
X139755000Y-57815494D01*
X139965853Y-58324540D01*
X140324313Y-58683000D01*
X139965853Y-59041460D01*
X139817865Y-59398737D01*
X139997201Y-58894829D01*
X139969230Y-58344552D01*
X139812460Y-57966077D01*
X139571517Y-57898088D01*
X138779605Y-58690000D01*
X138420395Y-58690000D01*
X137628483Y-57898088D01*
X137387540Y-57966077D01*
X137202799Y-58485171D01*
X137073516Y-58485171D01*
X137234147Y-58324540D01*
X137445000Y-57815494D01*
X137445000Y-57371517D01*
X137808088Y-57371517D01*
X137857041Y-57545000D01*
X137808088Y-57718483D01*
X138600000Y-58510395D01*
X139391912Y-57718483D01*
X139342959Y-57545000D01*
X139391912Y-57371517D01*
X138600000Y-56579605D01*
X137808088Y-57371517D01*
X137445000Y-57371517D01*
X137445000Y-57264506D01*
X137234147Y-56755460D01*
X136873687Y-56395000D01*
X137073516Y-56195171D01*
X137202799Y-56195171D01*
X137230770Y-56745448D01*
X137387540Y-57123923D01*
X137628483Y-57191912D01*
X138420395Y-56400000D01*
X138779605Y-56400000D01*
X139571517Y-57191912D01*
X139812460Y-57123923D01*
X139997201Y-56604829D01*
X139969230Y-56054552D01*
X139812460Y-55676077D01*
X139571517Y-55608088D01*
X138779605Y-56400000D01*
X138420395Y-56400000D01*
X137628483Y-55608088D01*
X137387540Y-55676077D01*
X137202799Y-56195171D01*
X137073516Y-56195171D01*
X137234147Y-56034540D01*
X137445000Y-55525494D01*
X137445000Y-55081517D01*
X137808088Y-55081517D01*
X137857041Y-55255000D01*
X137808088Y-55428483D01*
X138600000Y-56220395D01*
X139391912Y-55428483D01*
X139342959Y-55255000D01*
X139391912Y-55081517D01*
X138600000Y-54289605D01*
X137808088Y-55081517D01*
X137445000Y-55081517D01*
X137445000Y-54974506D01*
X137234147Y-54465460D01*
X136844540Y-54075853D01*
X136432476Y-53905171D01*
X137202799Y-53905171D01*
X137230770Y-54455448D01*
X137387540Y-54833923D01*
X137628483Y-54901912D01*
X138420395Y-54110000D01*
X138779605Y-54110000D01*
X139571517Y-54901912D01*
X139812460Y-54833923D01*
X139997201Y-54314829D01*
X139969230Y-53764552D01*
X139812460Y-53386077D01*
X139571517Y-53318088D01*
X138779605Y-54110000D01*
X138420395Y-54110000D01*
X137628483Y-53318088D01*
X137387540Y-53386077D01*
X137202799Y-53905171D01*
X136432476Y-53905171D01*
X136335494Y-53865000D01*
X135784506Y-53865000D01*
X135275460Y-54075853D01*
X134885853Y-54465460D01*
X134675000Y-54974506D01*
X115003902Y-54974506D01*
X114812862Y-54783466D01*
X114285439Y-54565000D01*
X113714561Y-54565000D01*
X113187138Y-54783466D01*
X112783466Y-55187138D01*
X112729606Y-55317168D01*
X112494577Y-54965423D01*
X112019909Y-54648260D01*
X111601333Y-54565000D01*
X111318667Y-54565000D01*
X110900091Y-54648260D01*
X110425423Y-54965423D01*
X110108260Y-55440091D01*
X109996887Y-56000000D01*
X108111925Y-56000000D01*
X108118092Y-55969000D01*
X108002839Y-55389582D01*
X107674625Y-54898375D01*
X107376239Y-54699000D01*
X107674625Y-54499625D01*
X108002839Y-54008418D01*
X108103969Y-53500000D01*
X116496887Y-53500000D01*
X116608260Y-54059909D01*
X116925423Y-54534577D01*
X117400091Y-54851740D01*
X117818667Y-54935000D01*
X118101333Y-54935000D01*
X118519909Y-54851740D01*
X118994577Y-54534577D01*
X119229606Y-54182832D01*
X119283466Y-54312862D01*
X119687138Y-54716534D01*
X120214561Y-54935000D01*
X120785439Y-54935000D01*
X121312862Y-54716534D01*
X121521651Y-54507745D01*
X124671861Y-54507745D01*
X124745995Y-54753864D01*
X125283223Y-54946965D01*
X125853454Y-54919778D01*
X126254005Y-54753864D01*
X126328139Y-54507745D01*
X125500000Y-53679605D01*
X124671861Y-54507745D01*
X121521651Y-54507745D01*
X121716534Y-54312862D01*
X121935000Y-53785439D01*
X121935000Y-53283223D01*
X124053035Y-53283223D01*
X124080222Y-53853454D01*
X124246136Y-54254005D01*
X124492255Y-54328139D01*
X125320395Y-53500000D01*
X124492255Y-52671861D01*
X124246136Y-52745995D01*
X124053035Y-53283223D01*
X121935000Y-53283223D01*
X121935000Y-53214561D01*
X121716534Y-52687138D01*
X121521651Y-52492255D01*
X124671861Y-52492255D01*
X125500000Y-53320395D01*
X126328139Y-52492255D01*
X126254005Y-52246136D01*
X125716777Y-52053035D01*
X125146546Y-52080222D01*
X124745995Y-52246136D01*
X124671861Y-52492255D01*
X121521651Y-52492255D01*
X121312862Y-52283466D01*
X120785439Y-52065000D01*
X120214561Y-52065000D01*
X119687138Y-52283466D01*
X119283466Y-52687138D01*
X119229606Y-52817168D01*
X118994577Y-52465423D01*
X118519909Y-52148260D01*
X118101333Y-52065000D01*
X117818667Y-52065000D01*
X117400091Y-52148260D01*
X116925423Y-52465423D01*
X116608260Y-52940091D01*
X116496887Y-53500000D01*
X108103969Y-53500000D01*
X108118092Y-53429000D01*
X108002839Y-52849582D01*
X107674625Y-52358375D01*
X107183418Y-52030161D01*
X106750256Y-51944000D01*
X106457744Y-51944000D01*
X106024582Y-52030161D01*
X105533375Y-52358375D01*
X105334000Y-52656761D01*
X105134625Y-52358375D01*
X104643418Y-52030161D01*
X104210256Y-51944000D01*
X103917744Y-51944000D01*
X103484582Y-52030161D01*
X102993375Y-52358375D01*
X102665161Y-52849582D01*
X102549908Y-53429000D01*
X100710000Y-53429000D01*
X100710000Y-50710000D01*
X110807691Y-50710000D01*
X110425423Y-50965423D01*
X110108260Y-51440091D01*
X109996887Y-52000000D01*
X110108260Y-52559909D01*
X110425423Y-53034577D01*
X110900091Y-53351740D01*
X111318667Y-53435000D01*
X111601333Y-53435000D01*
X112019909Y-53351740D01*
X112494577Y-53034577D01*
X112729606Y-52682832D01*
X112783466Y-52812862D01*
X113187138Y-53216534D01*
X113714561Y-53435000D01*
X114285439Y-53435000D01*
X114812862Y-53216534D01*
X115216534Y-52812862D01*
X115435000Y-52285439D01*
X115435000Y-51714561D01*
X115216534Y-51187138D01*
X114812862Y-50783466D01*
X114635500Y-50710000D01*
X127930075Y-50710000D01*
X128000000Y-50723909D01*
X128277028Y-50668805D01*
X128339594Y-50627000D01*
X128500000Y-50627000D01*
X128548601Y-50617333D01*
X128589803Y-50589803D01*
X128617333Y-50548601D01*
X128627000Y-50500000D01*
X128627000Y-50339594D01*
X128668805Y-50277028D01*
X128710000Y-50069926D01*
X128723909Y-50000000D01*
X128710000Y-49930074D01*
X128710000Y-44710000D01*
X138089381Y-44710000D01*
X137249006Y-45058095D01*
G04 #@! TD*
M02*
