G04 #@! TF.GenerationSoftware,KiCad,Pcbnew,5.0.2+dfsg1-1~bpo9+1*
G04 #@! TF.CreationDate,2021-09-12T12:59:09+02:00*
G04 #@! TF.ProjectId,VGA222-PMOD,56474132-3232-42d5-904d-4f442e6b6963,rev?*
G04 #@! TF.SameCoordinates,Original*
G04 #@! TF.FileFunction,Legend,Top*
G04 #@! TF.FilePolarity,Positive*
%FSLAX46Y46*%
G04 Gerber Fmt 4.6, Leading zero omitted, Abs format (unit mm)*
G04 Created by KiCad (PCBNEW 5.0.2+dfsg1-1~bpo9+1) date Sun Sep 12 12:59:09 2021*
%MOMM*%
%LPD*%
G01*
G04 APERTURE LIST*
%ADD10C,0.120000*%
%ADD11C,0.150000*%
G04 APERTURE END LIST*
D10*
G04 #@! TO.C,C3*
X130020000Y-53500000D02*
G75*
G03X130020000Y-53500000I-3270000J0D01*
G01*
X126750000Y-56730000D02*
X126750000Y-50270000D01*
X126710000Y-56730000D02*
X126710000Y-50270000D01*
X126670000Y-56730000D02*
X126670000Y-50270000D01*
X126630000Y-56728000D02*
X126630000Y-50272000D01*
X126590000Y-56727000D02*
X126590000Y-50273000D01*
X126550000Y-56724000D02*
X126550000Y-50276000D01*
X126510000Y-56722000D02*
X126510000Y-54540000D01*
X126510000Y-52460000D02*
X126510000Y-50278000D01*
X126470000Y-56718000D02*
X126470000Y-54540000D01*
X126470000Y-52460000D02*
X126470000Y-50282000D01*
X126430000Y-56715000D02*
X126430000Y-54540000D01*
X126430000Y-52460000D02*
X126430000Y-50285000D01*
X126390000Y-56711000D02*
X126390000Y-54540000D01*
X126390000Y-52460000D02*
X126390000Y-50289000D01*
X126350000Y-56706000D02*
X126350000Y-54540000D01*
X126350000Y-52460000D02*
X126350000Y-50294000D01*
X126310000Y-56701000D02*
X126310000Y-54540000D01*
X126310000Y-52460000D02*
X126310000Y-50299000D01*
X126270000Y-56695000D02*
X126270000Y-54540000D01*
X126270000Y-52460000D02*
X126270000Y-50305000D01*
X126230000Y-56689000D02*
X126230000Y-54540000D01*
X126230000Y-52460000D02*
X126230000Y-50311000D01*
X126190000Y-56682000D02*
X126190000Y-54540000D01*
X126190000Y-52460000D02*
X126190000Y-50318000D01*
X126150000Y-56675000D02*
X126150000Y-54540000D01*
X126150000Y-52460000D02*
X126150000Y-50325000D01*
X126110000Y-56667000D02*
X126110000Y-54540000D01*
X126110000Y-52460000D02*
X126110000Y-50333000D01*
X126070000Y-56659000D02*
X126070000Y-54540000D01*
X126070000Y-52460000D02*
X126070000Y-50341000D01*
X126029000Y-56650000D02*
X126029000Y-54540000D01*
X126029000Y-52460000D02*
X126029000Y-50350000D01*
X125989000Y-56641000D02*
X125989000Y-54540000D01*
X125989000Y-52460000D02*
X125989000Y-50359000D01*
X125949000Y-56631000D02*
X125949000Y-54540000D01*
X125949000Y-52460000D02*
X125949000Y-50369000D01*
X125909000Y-56621000D02*
X125909000Y-54540000D01*
X125909000Y-52460000D02*
X125909000Y-50379000D01*
X125869000Y-56610000D02*
X125869000Y-54540000D01*
X125869000Y-52460000D02*
X125869000Y-50390000D01*
X125829000Y-56598000D02*
X125829000Y-54540000D01*
X125829000Y-52460000D02*
X125829000Y-50402000D01*
X125789000Y-56586000D02*
X125789000Y-54540000D01*
X125789000Y-52460000D02*
X125789000Y-50414000D01*
X125749000Y-56574000D02*
X125749000Y-54540000D01*
X125749000Y-52460000D02*
X125749000Y-50426000D01*
X125709000Y-56561000D02*
X125709000Y-54540000D01*
X125709000Y-52460000D02*
X125709000Y-50439000D01*
X125669000Y-56547000D02*
X125669000Y-54540000D01*
X125669000Y-52460000D02*
X125669000Y-50453000D01*
X125629000Y-56533000D02*
X125629000Y-54540000D01*
X125629000Y-52460000D02*
X125629000Y-50467000D01*
X125589000Y-56518000D02*
X125589000Y-54540000D01*
X125589000Y-52460000D02*
X125589000Y-50482000D01*
X125549000Y-56502000D02*
X125549000Y-54540000D01*
X125549000Y-52460000D02*
X125549000Y-50498000D01*
X125509000Y-56486000D02*
X125509000Y-54540000D01*
X125509000Y-52460000D02*
X125509000Y-50514000D01*
X125469000Y-56470000D02*
X125469000Y-54540000D01*
X125469000Y-52460000D02*
X125469000Y-50530000D01*
X125429000Y-56452000D02*
X125429000Y-54540000D01*
X125429000Y-52460000D02*
X125429000Y-50548000D01*
X125389000Y-56434000D02*
X125389000Y-54540000D01*
X125389000Y-52460000D02*
X125389000Y-50566000D01*
X125349000Y-56416000D02*
X125349000Y-54540000D01*
X125349000Y-52460000D02*
X125349000Y-50584000D01*
X125309000Y-56396000D02*
X125309000Y-54540000D01*
X125309000Y-52460000D02*
X125309000Y-50604000D01*
X125269000Y-56376000D02*
X125269000Y-54540000D01*
X125269000Y-52460000D02*
X125269000Y-50624000D01*
X125229000Y-56356000D02*
X125229000Y-54540000D01*
X125229000Y-52460000D02*
X125229000Y-50644000D01*
X125189000Y-56334000D02*
X125189000Y-54540000D01*
X125189000Y-52460000D02*
X125189000Y-50666000D01*
X125149000Y-56312000D02*
X125149000Y-54540000D01*
X125149000Y-52460000D02*
X125149000Y-50688000D01*
X125109000Y-56290000D02*
X125109000Y-54540000D01*
X125109000Y-52460000D02*
X125109000Y-50710000D01*
X125069000Y-56266000D02*
X125069000Y-54540000D01*
X125069000Y-52460000D02*
X125069000Y-50734000D01*
X125029000Y-56242000D02*
X125029000Y-54540000D01*
X125029000Y-52460000D02*
X125029000Y-50758000D01*
X124989000Y-56216000D02*
X124989000Y-54540000D01*
X124989000Y-52460000D02*
X124989000Y-50784000D01*
X124949000Y-56190000D02*
X124949000Y-54540000D01*
X124949000Y-52460000D02*
X124949000Y-50810000D01*
X124909000Y-56164000D02*
X124909000Y-54540000D01*
X124909000Y-52460000D02*
X124909000Y-50836000D01*
X124869000Y-56136000D02*
X124869000Y-54540000D01*
X124869000Y-52460000D02*
X124869000Y-50864000D01*
X124829000Y-56107000D02*
X124829000Y-54540000D01*
X124829000Y-52460000D02*
X124829000Y-50893000D01*
X124789000Y-56078000D02*
X124789000Y-54540000D01*
X124789000Y-52460000D02*
X124789000Y-50922000D01*
X124749000Y-56048000D02*
X124749000Y-54540000D01*
X124749000Y-52460000D02*
X124749000Y-50952000D01*
X124709000Y-56016000D02*
X124709000Y-54540000D01*
X124709000Y-52460000D02*
X124709000Y-50984000D01*
X124669000Y-55984000D02*
X124669000Y-54540000D01*
X124669000Y-52460000D02*
X124669000Y-51016000D01*
X124629000Y-55950000D02*
X124629000Y-54540000D01*
X124629000Y-52460000D02*
X124629000Y-51050000D01*
X124589000Y-55916000D02*
X124589000Y-54540000D01*
X124589000Y-52460000D02*
X124589000Y-51084000D01*
X124549000Y-55880000D02*
X124549000Y-54540000D01*
X124549000Y-52460000D02*
X124549000Y-51120000D01*
X124509000Y-55843000D02*
X124509000Y-54540000D01*
X124509000Y-52460000D02*
X124509000Y-51157000D01*
X124469000Y-55805000D02*
X124469000Y-54540000D01*
X124469000Y-52460000D02*
X124469000Y-51195000D01*
X124429000Y-55765000D02*
X124429000Y-51235000D01*
X124389000Y-55724000D02*
X124389000Y-51276000D01*
X124349000Y-55682000D02*
X124349000Y-51318000D01*
X124309000Y-55637000D02*
X124309000Y-51363000D01*
X124269000Y-55592000D02*
X124269000Y-51408000D01*
X124229000Y-55544000D02*
X124229000Y-51456000D01*
X124189000Y-55495000D02*
X124189000Y-51505000D01*
X124149000Y-55444000D02*
X124149000Y-51556000D01*
X124109000Y-55390000D02*
X124109000Y-51610000D01*
X124069000Y-55334000D02*
X124069000Y-51666000D01*
X124029000Y-55276000D02*
X124029000Y-51724000D01*
X123989000Y-55214000D02*
X123989000Y-51786000D01*
X123949000Y-55150000D02*
X123949000Y-51850000D01*
X123909000Y-55081000D02*
X123909000Y-51919000D01*
X123869000Y-55009000D02*
X123869000Y-51991000D01*
X123829000Y-54932000D02*
X123829000Y-52068000D01*
X123789000Y-54850000D02*
X123789000Y-52150000D01*
X123749000Y-54762000D02*
X123749000Y-52238000D01*
X123709000Y-54665000D02*
X123709000Y-52335000D01*
X123669000Y-54559000D02*
X123669000Y-52441000D01*
X123629000Y-54440000D02*
X123629000Y-52560000D01*
X123589000Y-54302000D02*
X123589000Y-52698000D01*
X123549000Y-54133000D02*
X123549000Y-52867000D01*
X123509000Y-53902000D02*
X123509000Y-53098000D01*
X130250241Y-55339000D02*
X129620241Y-55339000D01*
X129935241Y-55654000D02*
X129935241Y-55024000D01*
G04 #@! TO.C,R25*
X121870000Y-61500000D02*
G75*
G03X121870000Y-61500000I-1370000J0D01*
G01*
X119130000Y-61500000D02*
X119060000Y-61500000D01*
G04 #@! TO.C,R24*
X112630000Y-60000000D02*
X112560000Y-60000000D01*
X115370000Y-60000000D02*
G75*
G03X115370000Y-60000000I-1370000J0D01*
G01*
G04 #@! TO.C,R19*
X121870000Y-57500000D02*
G75*
G03X121870000Y-57500000I-1370000J0D01*
G01*
X119130000Y-57500000D02*
X119060000Y-57500000D01*
G04 #@! TO.C,R18*
X112630000Y-56000000D02*
X112560000Y-56000000D01*
X115370000Y-56000000D02*
G75*
G03X115370000Y-56000000I-1370000J0D01*
G01*
G04 #@! TO.C,R13*
X121870000Y-53500000D02*
G75*
G03X121870000Y-53500000I-1370000J0D01*
G01*
X119130000Y-53500000D02*
X119060000Y-53500000D01*
G04 #@! TO.C,R12*
X112630000Y-52000000D02*
X112560000Y-52000000D01*
X115370000Y-52000000D02*
G75*
G03X115370000Y-52000000I-1370000J0D01*
G01*
G04 #@! TO.C,R9*
X127870000Y-67000000D02*
G75*
G03X127870000Y-67000000I-1370000J0D01*
G01*
X126500000Y-65630000D02*
X126500000Y-65560000D01*
G04 #@! TO.C,R11*
X113370000Y-67000000D02*
X113440000Y-67000000D01*
X113370000Y-67000000D02*
G75*
G03X113370000Y-67000000I-1370000J0D01*
G01*
G04 #@! TO.C,R10*
X119870000Y-66000000D02*
G75*
G03X119870000Y-66000000I-1370000J0D01*
G01*
X119870000Y-66000000D02*
X119940000Y-66000000D01*
D11*
G04 #@! TO.C,J1*
X150030000Y-72080000D02*
X150030000Y-47080000D01*
D10*
G04 #@! TO.C,J2*
X102624000Y-67459000D02*
X102624000Y-52099000D01*
X102624000Y-52099000D02*
X99964000Y-52099000D01*
X99964000Y-52099000D02*
X99964000Y-67459000D01*
X99964000Y-67459000D02*
X102624000Y-67459000D01*
X99964000Y-66509000D02*
X93964000Y-66509000D01*
X93964000Y-66509000D02*
X93964000Y-65749000D01*
X93964000Y-65749000D02*
X99964000Y-65749000D01*
X99964000Y-66449000D02*
X93964000Y-66449000D01*
X99964000Y-66329000D02*
X93964000Y-66329000D01*
X99964000Y-66209000D02*
X93964000Y-66209000D01*
X99964000Y-66089000D02*
X93964000Y-66089000D01*
X99964000Y-65969000D02*
X93964000Y-65969000D01*
X99964000Y-65849000D02*
X93964000Y-65849000D01*
X103021071Y-66509000D02*
X102624000Y-66509000D01*
X103021071Y-65749000D02*
X102624000Y-65749000D01*
X105494000Y-66509000D02*
X105106929Y-66509000D01*
X105494000Y-65749000D02*
X105106929Y-65749000D01*
X102624000Y-64859000D02*
X99964000Y-64859000D01*
X99964000Y-63969000D02*
X93964000Y-63969000D01*
X93964000Y-63969000D02*
X93964000Y-63209000D01*
X93964000Y-63209000D02*
X99964000Y-63209000D01*
X103021071Y-63969000D02*
X102624000Y-63969000D01*
X103021071Y-63209000D02*
X102624000Y-63209000D01*
X105561071Y-63969000D02*
X105106929Y-63969000D01*
X105561071Y-63209000D02*
X105106929Y-63209000D01*
X102624000Y-62319000D02*
X99964000Y-62319000D01*
X99964000Y-61429000D02*
X93964000Y-61429000D01*
X93964000Y-61429000D02*
X93964000Y-60669000D01*
X93964000Y-60669000D02*
X99964000Y-60669000D01*
X103021071Y-61429000D02*
X102624000Y-61429000D01*
X103021071Y-60669000D02*
X102624000Y-60669000D01*
X105561071Y-61429000D02*
X105106929Y-61429000D01*
X105561071Y-60669000D02*
X105106929Y-60669000D01*
X102624000Y-59779000D02*
X99964000Y-59779000D01*
X99964000Y-58889000D02*
X93964000Y-58889000D01*
X93964000Y-58889000D02*
X93964000Y-58129000D01*
X93964000Y-58129000D02*
X99964000Y-58129000D01*
X103021071Y-58889000D02*
X102624000Y-58889000D01*
X103021071Y-58129000D02*
X102624000Y-58129000D01*
X105561071Y-58889000D02*
X105106929Y-58889000D01*
X105561071Y-58129000D02*
X105106929Y-58129000D01*
X102624000Y-57239000D02*
X99964000Y-57239000D01*
X99964000Y-56349000D02*
X93964000Y-56349000D01*
X93964000Y-56349000D02*
X93964000Y-55589000D01*
X93964000Y-55589000D02*
X99964000Y-55589000D01*
X103021071Y-56349000D02*
X102624000Y-56349000D01*
X103021071Y-55589000D02*
X102624000Y-55589000D01*
X105561071Y-56349000D02*
X105106929Y-56349000D01*
X105561071Y-55589000D02*
X105106929Y-55589000D01*
X102624000Y-54699000D02*
X99964000Y-54699000D01*
X99964000Y-53809000D02*
X93964000Y-53809000D01*
X93964000Y-53809000D02*
X93964000Y-53049000D01*
X93964000Y-53049000D02*
X99964000Y-53049000D01*
X103021071Y-53809000D02*
X102624000Y-53809000D01*
X103021071Y-53049000D02*
X102624000Y-53049000D01*
X105561071Y-53809000D02*
X105106929Y-53809000D01*
X105561071Y-53049000D02*
X105106929Y-53049000D01*
X107874000Y-66129000D02*
X107874000Y-67399000D01*
X107874000Y-67399000D02*
X106604000Y-67399000D01*
G04 #@! TO.C,C3*
D11*
X126583333Y-58257142D02*
X126535714Y-58304761D01*
X126392857Y-58352380D01*
X126297619Y-58352380D01*
X126154761Y-58304761D01*
X126059523Y-58209523D01*
X126011904Y-58114285D01*
X125964285Y-57923809D01*
X125964285Y-57780952D01*
X126011904Y-57590476D01*
X126059523Y-57495238D01*
X126154761Y-57400000D01*
X126297619Y-57352380D01*
X126392857Y-57352380D01*
X126535714Y-57400000D01*
X126583333Y-57447619D01*
X126916666Y-57352380D02*
X127535714Y-57352380D01*
X127202380Y-57733333D01*
X127345238Y-57733333D01*
X127440476Y-57780952D01*
X127488095Y-57828571D01*
X127535714Y-57923809D01*
X127535714Y-58161904D01*
X127488095Y-58257142D01*
X127440476Y-58304761D01*
X127345238Y-58352380D01*
X127059523Y-58352380D01*
X126964285Y-58304761D01*
X126916666Y-58257142D01*
G04 #@! TO.C,R25*
X122857142Y-62952380D02*
X122523809Y-62476190D01*
X122285714Y-62952380D02*
X122285714Y-61952380D01*
X122666666Y-61952380D01*
X122761904Y-62000000D01*
X122809523Y-62047619D01*
X122857142Y-62142857D01*
X122857142Y-62285714D01*
X122809523Y-62380952D01*
X122761904Y-62428571D01*
X122666666Y-62476190D01*
X122285714Y-62476190D01*
X123238095Y-62047619D02*
X123285714Y-62000000D01*
X123380952Y-61952380D01*
X123619047Y-61952380D01*
X123714285Y-62000000D01*
X123761904Y-62047619D01*
X123809523Y-62142857D01*
X123809523Y-62238095D01*
X123761904Y-62380952D01*
X123190476Y-62952380D01*
X123809523Y-62952380D01*
X124714285Y-61952380D02*
X124238095Y-61952380D01*
X124190476Y-62428571D01*
X124238095Y-62380952D01*
X124333333Y-62333333D01*
X124571428Y-62333333D01*
X124666666Y-62380952D01*
X124714285Y-62428571D01*
X124761904Y-62523809D01*
X124761904Y-62761904D01*
X124714285Y-62857142D01*
X124666666Y-62904761D01*
X124571428Y-62952380D01*
X124333333Y-62952380D01*
X124238095Y-62904761D01*
X124190476Y-62857142D01*
G04 #@! TO.C,R24*
X108357142Y-59452380D02*
X108023809Y-58976190D01*
X107785714Y-59452380D02*
X107785714Y-58452380D01*
X108166666Y-58452380D01*
X108261904Y-58500000D01*
X108309523Y-58547619D01*
X108357142Y-58642857D01*
X108357142Y-58785714D01*
X108309523Y-58880952D01*
X108261904Y-58928571D01*
X108166666Y-58976190D01*
X107785714Y-58976190D01*
X108738095Y-58547619D02*
X108785714Y-58500000D01*
X108880952Y-58452380D01*
X109119047Y-58452380D01*
X109214285Y-58500000D01*
X109261904Y-58547619D01*
X109309523Y-58642857D01*
X109309523Y-58738095D01*
X109261904Y-58880952D01*
X108690476Y-59452380D01*
X109309523Y-59452380D01*
X110166666Y-58785714D02*
X110166666Y-59452380D01*
X109928571Y-58404761D02*
X109690476Y-59119047D01*
X110309523Y-59119047D01*
G04 #@! TO.C,R19*
X122857142Y-58952380D02*
X122523809Y-58476190D01*
X122285714Y-58952380D02*
X122285714Y-57952380D01*
X122666666Y-57952380D01*
X122761904Y-58000000D01*
X122809523Y-58047619D01*
X122857142Y-58142857D01*
X122857142Y-58285714D01*
X122809523Y-58380952D01*
X122761904Y-58428571D01*
X122666666Y-58476190D01*
X122285714Y-58476190D01*
X123809523Y-58952380D02*
X123238095Y-58952380D01*
X123523809Y-58952380D02*
X123523809Y-57952380D01*
X123428571Y-58095238D01*
X123333333Y-58190476D01*
X123238095Y-58238095D01*
X124285714Y-58952380D02*
X124476190Y-58952380D01*
X124571428Y-58904761D01*
X124619047Y-58857142D01*
X124714285Y-58714285D01*
X124761904Y-58523809D01*
X124761904Y-58142857D01*
X124714285Y-58047619D01*
X124666666Y-58000000D01*
X124571428Y-57952380D01*
X124380952Y-57952380D01*
X124285714Y-58000000D01*
X124238095Y-58047619D01*
X124190476Y-58142857D01*
X124190476Y-58380952D01*
X124238095Y-58476190D01*
X124285714Y-58523809D01*
X124380952Y-58571428D01*
X124571428Y-58571428D01*
X124666666Y-58523809D01*
X124714285Y-58476190D01*
X124761904Y-58380952D01*
G04 #@! TO.C,R18*
X108357142Y-55452380D02*
X108023809Y-54976190D01*
X107785714Y-55452380D02*
X107785714Y-54452380D01*
X108166666Y-54452380D01*
X108261904Y-54500000D01*
X108309523Y-54547619D01*
X108357142Y-54642857D01*
X108357142Y-54785714D01*
X108309523Y-54880952D01*
X108261904Y-54928571D01*
X108166666Y-54976190D01*
X107785714Y-54976190D01*
X109309523Y-55452380D02*
X108738095Y-55452380D01*
X109023809Y-55452380D02*
X109023809Y-54452380D01*
X108928571Y-54595238D01*
X108833333Y-54690476D01*
X108738095Y-54738095D01*
X109880952Y-54880952D02*
X109785714Y-54833333D01*
X109738095Y-54785714D01*
X109690476Y-54690476D01*
X109690476Y-54642857D01*
X109738095Y-54547619D01*
X109785714Y-54500000D01*
X109880952Y-54452380D01*
X110071428Y-54452380D01*
X110166666Y-54500000D01*
X110214285Y-54547619D01*
X110261904Y-54642857D01*
X110261904Y-54690476D01*
X110214285Y-54785714D01*
X110166666Y-54833333D01*
X110071428Y-54880952D01*
X109880952Y-54880952D01*
X109785714Y-54928571D01*
X109738095Y-54976190D01*
X109690476Y-55071428D01*
X109690476Y-55261904D01*
X109738095Y-55357142D01*
X109785714Y-55404761D01*
X109880952Y-55452380D01*
X110071428Y-55452380D01*
X110166666Y-55404761D01*
X110214285Y-55357142D01*
X110261904Y-55261904D01*
X110261904Y-55071428D01*
X110214285Y-54976190D01*
X110166666Y-54928571D01*
X110071428Y-54880952D01*
G04 #@! TO.C,R13*
X119857142Y-51452380D02*
X119523809Y-50976190D01*
X119285714Y-51452380D02*
X119285714Y-50452380D01*
X119666666Y-50452380D01*
X119761904Y-50500000D01*
X119809523Y-50547619D01*
X119857142Y-50642857D01*
X119857142Y-50785714D01*
X119809523Y-50880952D01*
X119761904Y-50928571D01*
X119666666Y-50976190D01*
X119285714Y-50976190D01*
X120809523Y-51452380D02*
X120238095Y-51452380D01*
X120523809Y-51452380D02*
X120523809Y-50452380D01*
X120428571Y-50595238D01*
X120333333Y-50690476D01*
X120238095Y-50738095D01*
X121142857Y-50452380D02*
X121761904Y-50452380D01*
X121428571Y-50833333D01*
X121571428Y-50833333D01*
X121666666Y-50880952D01*
X121714285Y-50928571D01*
X121761904Y-51023809D01*
X121761904Y-51261904D01*
X121714285Y-51357142D01*
X121666666Y-51404761D01*
X121571428Y-51452380D01*
X121285714Y-51452380D01*
X121190476Y-51404761D01*
X121142857Y-51357142D01*
G04 #@! TO.C,R12*
X108357142Y-51452380D02*
X108023809Y-50976190D01*
X107785714Y-51452380D02*
X107785714Y-50452380D01*
X108166666Y-50452380D01*
X108261904Y-50500000D01*
X108309523Y-50547619D01*
X108357142Y-50642857D01*
X108357142Y-50785714D01*
X108309523Y-50880952D01*
X108261904Y-50928571D01*
X108166666Y-50976190D01*
X107785714Y-50976190D01*
X109309523Y-51452380D02*
X108738095Y-51452380D01*
X109023809Y-51452380D02*
X109023809Y-50452380D01*
X108928571Y-50595238D01*
X108833333Y-50690476D01*
X108738095Y-50738095D01*
X109690476Y-50547619D02*
X109738095Y-50500000D01*
X109833333Y-50452380D01*
X110071428Y-50452380D01*
X110166666Y-50500000D01*
X110214285Y-50547619D01*
X110261904Y-50642857D01*
X110261904Y-50738095D01*
X110214285Y-50880952D01*
X109642857Y-51452380D01*
X110261904Y-51452380D01*
G04 #@! TO.C,R9*
X124582380Y-65896666D02*
X124106190Y-66230000D01*
X124582380Y-66468095D02*
X123582380Y-66468095D01*
X123582380Y-66087142D01*
X123630000Y-65991904D01*
X123677619Y-65944285D01*
X123772857Y-65896666D01*
X123915714Y-65896666D01*
X124010952Y-65944285D01*
X124058571Y-65991904D01*
X124106190Y-66087142D01*
X124106190Y-66468095D01*
X124582380Y-65420476D02*
X124582380Y-65230000D01*
X124534761Y-65134761D01*
X124487142Y-65087142D01*
X124344285Y-64991904D01*
X124153809Y-64944285D01*
X123772857Y-64944285D01*
X123677619Y-64991904D01*
X123630000Y-65039523D01*
X123582380Y-65134761D01*
X123582380Y-65325238D01*
X123630000Y-65420476D01*
X123677619Y-65468095D01*
X123772857Y-65515714D01*
X124010952Y-65515714D01*
X124106190Y-65468095D01*
X124153809Y-65420476D01*
X124201428Y-65325238D01*
X124201428Y-65134761D01*
X124153809Y-65039523D01*
X124106190Y-64991904D01*
X124010952Y-64944285D01*
G04 #@! TO.C,R11*
X112627142Y-65082380D02*
X112293809Y-64606190D01*
X112055714Y-65082380D02*
X112055714Y-64082380D01*
X112436666Y-64082380D01*
X112531904Y-64130000D01*
X112579523Y-64177619D01*
X112627142Y-64272857D01*
X112627142Y-64415714D01*
X112579523Y-64510952D01*
X112531904Y-64558571D01*
X112436666Y-64606190D01*
X112055714Y-64606190D01*
X113579523Y-65082380D02*
X113008095Y-65082380D01*
X113293809Y-65082380D02*
X113293809Y-64082380D01*
X113198571Y-64225238D01*
X113103333Y-64320476D01*
X113008095Y-64368095D01*
X114531904Y-65082380D02*
X113960476Y-65082380D01*
X114246190Y-65082380D02*
X114246190Y-64082380D01*
X114150952Y-64225238D01*
X114055714Y-64320476D01*
X113960476Y-64368095D01*
G04 #@! TO.C,R10*
X122857142Y-66452380D02*
X122523809Y-65976190D01*
X122285714Y-66452380D02*
X122285714Y-65452380D01*
X122666666Y-65452380D01*
X122761904Y-65500000D01*
X122809523Y-65547619D01*
X122857142Y-65642857D01*
X122857142Y-65785714D01*
X122809523Y-65880952D01*
X122761904Y-65928571D01*
X122666666Y-65976190D01*
X122285714Y-65976190D01*
X123809523Y-66452380D02*
X123238095Y-66452380D01*
X123523809Y-66452380D02*
X123523809Y-65452380D01*
X123428571Y-65595238D01*
X123333333Y-65690476D01*
X123238095Y-65738095D01*
X124428571Y-65452380D02*
X124523809Y-65452380D01*
X124619047Y-65500000D01*
X124666666Y-65547619D01*
X124714285Y-65642857D01*
X124761904Y-65833333D01*
X124761904Y-66071428D01*
X124714285Y-66261904D01*
X124666666Y-66357142D01*
X124619047Y-66404761D01*
X124523809Y-66452380D01*
X124428571Y-66452380D01*
X124333333Y-66404761D01*
X124285714Y-66357142D01*
X124238095Y-66261904D01*
X124190476Y-66071428D01*
X124190476Y-65833333D01*
X124238095Y-65642857D01*
X124285714Y-65547619D01*
X124333333Y-65500000D01*
X124428571Y-65452380D01*
G04 #@! TO.C,J1*
X134652380Y-47213333D02*
X135366666Y-47213333D01*
X135509523Y-47260952D01*
X135604761Y-47356190D01*
X135652380Y-47499047D01*
X135652380Y-47594285D01*
X135652380Y-46213333D02*
X135652380Y-46784761D01*
X135652380Y-46499047D02*
X134652380Y-46499047D01*
X134795238Y-46594285D01*
X134890476Y-46689523D01*
X134938095Y-46784761D01*
G04 #@! TO.C,J2*
X108596380Y-61333333D02*
X109310666Y-61333333D01*
X109453523Y-61380952D01*
X109548761Y-61476190D01*
X109596380Y-61619047D01*
X109596380Y-61714285D01*
X108691619Y-60904761D02*
X108644000Y-60857142D01*
X108596380Y-60761904D01*
X108596380Y-60523809D01*
X108644000Y-60428571D01*
X108691619Y-60380952D01*
X108786857Y-60333333D01*
X108882095Y-60333333D01*
X109024952Y-60380952D01*
X109596380Y-60952380D01*
X109596380Y-60333333D01*
G04 #@! TD*
M02*
