M48
;DRILL file {KiCad 5.0.2+dfsg1-1~bpo9+1} date Sun Sep 12 12:59:12 2021
;FORMAT={-:-/ absolute / inch / decimal}
FMAT,2
INCH,TZ
T1C0.0315
T2C0.0394
T3C0.0469
T4C0.1201
%
G90
G05
T1
X4.4882Y-2.3622
X4.6441Y-2.2638
X4.3882Y-2.2047
X4.4882Y-2.2047
X4.6441Y-2.4213
X4.7441Y-2.4213
X4.3882Y-2.0472
X4.4882Y-2.0472
X4.6654Y-2.5984
X4.7654Y-2.5984
X4.9803Y-2.5378
X4.9803Y-2.6378
X4.6441Y-2.1063
X4.7441Y-2.1063
X4.9409Y-2.1063
X5.0394Y-2.1063
X4.3882Y-2.3622
X4.7441Y-2.2638
X4.4094Y-2.6378
X4.5094Y-2.6378
T2
X4.097Y-2.1035
X4.097Y-2.2035
X4.097Y-2.3035
X4.097Y-2.4035
X4.097Y-2.5035
X4.097Y-2.6035
X4.197Y-2.1035
X4.197Y-2.2035
X4.197Y-2.3035
X4.197Y-2.4035
X4.197Y-2.5035
X4.197Y-2.6035
T3
X5.3567Y-2.1752
X5.3567Y-2.2654
X5.3567Y-2.3555
X5.3567Y-2.4457
X5.3567Y-2.5358
X5.4567Y-2.1303
X5.4567Y-2.2205
X5.4567Y-2.3106
X5.4567Y-2.4008
X5.4567Y-2.4909
X5.5567Y-2.1752
X5.5567Y-2.2654
X5.5567Y-2.3554
X5.5567Y-2.4457
X5.5567Y-2.5358
T4
X5.4567Y-1.8535
X5.4567Y-2.8378
T0
M30
